REM MD5 e1d30b293e812e1d4a3a38d09b7a657a
FILE "Dengeki PlayStation D12 (Japan).bin" BINARY
  TRACK 01 MODE2/2352
    INDEX 01 00:00:00
  TRACK 02 AUDIO
    INDEX 00 55:36:36
    INDEX 01 55:38:36
  TRACK 03 AUDIO
    INDEX 00 58:54:53
    INDEX 01 58:56:53
  TRACK 04 AUDIO
    INDEX 00 59:58:37
    INDEX 01 60:00:37
REM LEADOUT 63:30:37
